<svg id="Layer_1" data-name="Layer 1" xmlns="http://www.w3.org/2000/svg" xmlns:xlink="http://www.w3.org/1999/xlink" viewBox="0 0 875.09 992.85"><defs><style>.cls-1{fill:none;}.cls-2{clip-path:url(#clip-path);}</style><clipPath id="clip-path" transform="translate(163.97 252)"><rect class="cls-1" x="-163.97" y="-251.9" width="875.04" height="992.76"/></clipPath></defs><path d="M212.13,192h-12.3V277.7h12.3a2.71,2.71,0,0,0,2.85-2.85v-80a2.71,2.71,0,0,0-2.85-2.85Z" transform="translate(163.97 252)"/><path d="M-47.82,192.53h-12.3v33.14h12.3A2.62,2.62,0,0,0-45,222.82V195.38a2.62,2.62,0,0,0-2.85-2.85Z" transform="translate(163.97 252)"/><path d="M390.42,190.39H377.24c-.89,0-.89,1.25-.89,2V277c0,.54.18,1.6.89,1.6h13.18c.37,0,1.08-.71,1.08-1.6V192.35c0-1.07-.71-2-1.08-2Z" transform="translate(163.97 252)"/><g class="cls-2"><path d="M-47.82,242.42h-12.3v34.75h12.3A2.58,2.58,0,0,0-45,274.49V245.27a2.62,2.62,0,0,0-2.85-2.85Z" transform="translate(163.97 252)"/><path d="M627.28,282.74A11.83,11.83,0,0,1,615,295H582.57V277H606c1.08,0,1.44-.72,1.44-1.62V245.24c0-.9-.36-1.62-1.44-1.62H594.83c-7.21,0-12.26-5.05-12.26-12.26V187c0-7.21,5-12.26,12.26-12.26h31.55v17.31H603.67c-.72,0-1.26.9-1.26,1.8v29.57a1.39,1.39,0,0,0,1.26,1.44H615c7.21,0,12.25,5.23,12.25,12.44v45.43ZM552.11,295l-17.49-46.33-2.88,3.6V295H512.08V174.75h19.66v51l20.37-51h20l-24.34,57L572.84,295Zm-81.67,0-8.29-40H455.3v40h-20V174.75h40.38c8.83,0,14.42,5.77,14.42,14.78v50.66c0,6.85-3.43,11.9-8.83,13.88l9,40.93ZM416.17,88.58h-111V-104.5H354.7V46.75h61.47V88.58Zm-4.5,195.06a11.94,11.94,0,0,1-12.26,12.26H368.58c-7.39,0-12.44-5.23-12.44-12.26V185.93c0-7.21,5.05-12.26,12.44-12.26h30.83a11.84,11.84,0,0,1,12.26,12.26v97.71ZM370.74,416.51l-18.2-18.39-5.77,5.77,18.39,18.39L346.23,441,328,422.46l-5.77,5.77,18.21,18.38-18.75,18.75L303.32,447l-5.59,5.59,18.21,18.57-5.41,5.41L297.19,489.7,278.8,471.31l-5.59,5.77,18.21,18.39-17.85,17.85-.9.9-18.39-18.57-5.77,5.77,18.39,18.39-18.75,18.75-18.39-18.39L224,525.76l18.39,18.57-18.75,18.56-18.39-18.38-5.77,5.77,18.39,18.38L193,593.36l-36.6-37,81.13-80.76-30.11-30.11,35.51-35.33L273,440.3l81.13-80.4,36.6,36.78-20,19.83ZM356.32,581.1l21.28-21.27,3.06,24.52-24.34-3.25Zm-70.49-57,35.52-35.34,47.59,48-35.51,35.33-47.6-48ZM120.7,174.75h20v102.4h23.08V295H120.7V174.75ZM96,295H77.06V174.75H96V295ZM52.37,280.39c0,8.66-5.95,14.61-14.79,14.61H12.35c-9,0-14.61-5.95-14.61-14.61V174.75h20V276.61c0,.9.72,1.62,1.08,1.62H30.91c.37,0,1.09-.72,1.09-1.62V174.75H52.37V280.39Zm-77-59.85c0,9.38-5.41,13.16-12.62,14.06C-30,235.69-25,240.19-25,248.31v34.61C-25,290-30,295-36.87,295H-80.32V174.75h43.63c7,0,12.08,4.87,12.08,12.08v33.71ZM231.57,398.66l5.77,5.77-35.7,35.33L196.05,434l35.52-35.33ZM179.65,295V174.75h38.94c9.91,0,16.58,6.49,16.58,16.59v87.07c0,9.92-6.67,16.59-16.58,16.59ZM166.31,404.07,202,368.73l23.8,24.16-35.52,35.34-24-24.16ZM131-104.5H268.16v41.82H224.54V88.58H174.78V-62.68H131V-104.5ZM278.26,252.63l9.55-77.88h16.77l10.28,78.42,7.39-78.42H340.1L324.59,295H307.83L296.29,215,284.75,295H267.8L252.12,174.75h18.93l7.21,77.88ZM709.31,63a34.92,34.92,0,0,0-15.14-28.67l-402.39-280a34.94,34.94,0,0,0-40.38.19L-149.19,37.74A34.43,34.43,0,0,0-164,66.58l1.8,359.3A34.9,34.9,0,0,0-147,454.55l402.39,280a34.92,34.92,0,0,0,40.38-.18l400.58-283a35.46,35.46,0,0,0,14.79-29L709.31,63Z" transform="translate(163.97 252)"/></g><path d="M469.23,192h-13.9v46.33h13.9c.54,0,1.25-.89,1.25-1.6V193.77c0-.89-.71-1.78-1.25-1.78Z" transform="translate(163.97 252)"/></svg>